<svg xmlns="http://www.w3.org/2000/svg" width="14.008" height="14.004" viewBox="0 0 14.008 14.004">
  <path id="IG" d="M7,14c-1.247,0-2.354-.019-2.889-.049a4.149,4.149,0,0,1-2.934-1.131A4.114,4.114,0,0,1,.05,9.89c-.066-1.161-.066-4.617,0-5.778A4.132,4.132,0,0,1,1.181,1.177,4.134,4.134,0,0,1,4.115.05C4.65.019,5.757,0,7,0S9.358.019,9.893.05a4.142,4.142,0,0,1,2.935,1.131,4.114,4.114,0,0,1,1.13,2.934c.066,1.16.066,4.615,0,5.775a4.144,4.144,0,0,1-1.13,2.934,4.118,4.118,0,0,1-2.935,1.131C9.358,13.986,8.251,14,7,14Zm0-1.262c.144,0,.312,0,.5,0,.227,0,.48,0,.743,0a9.846,9.846,0,0,0,2.889-.29,2.364,2.364,0,0,0,1.331-1.331A12.6,12.6,0,0,0,12.749,7.5c0-.188,0-.356,0-.5s0-.312,0-.5a12.623,12.623,0,0,0-.284-3.631,2.37,2.37,0,0,0-1.331-1.332,10.071,10.071,0,0,0-2.919-.289c-.256,0-.5,0-.721,0l-.489,0c-.145,0-.314,0-.5,0-.224,0-.478,0-.741,0a9.856,9.856,0,0,0-2.887.289A2.369,2.369,0,0,0,1.546,2.875a12.747,12.747,0,0,0-.285,3.64c0,.181,0,.345,0,.487s0,.312,0,.5a12.632,12.632,0,0,0,.285,3.632,2.364,2.364,0,0,0,1.331,1.331,10.057,10.057,0,0,0,2.921.289c.255,0,.5,0,.719,0Zm0-2.15A3.591,3.591,0,1,1,10.6,7,3.6,3.6,0,0,1,7.006,10.593Zm0-5.925A2.334,2.334,0,1,0,9.34,7,2.337,2.337,0,0,0,7.006,4.668ZM10.743,4.1a.837.837,0,1,1,.837-.837A.838.838,0,0,1,10.743,4.1Z" transform="translate(0 0)" fill="#131313"/>
</svg>
