<svg xmlns="http://www.w3.org/2000/svg" width="14" height="14" viewBox="0 0 14 14">
  <path id="IN" d="M13,14H1a1,1,0,0,1-1-1.01V1.01A1,1,0,0,1,1,0H13a1.006,1.006,0,0,1,1,1.01V12.991A1.006,1.006,0,0,1,13,14ZM8.856,6.978C9.934,6.978,9.934,8,9.934,8.75V12H12.01V8.338c0-1.654-.3-3.184-2.491-3.184A2.2,2.2,0,0,0,7.553,6.232H7.525V5.319H5.534V12H7.61V8.694C7.61,7.845,7.758,6.978,8.856,6.978Zm-6.7-1.659V12H4.235V5.319ZM3.194,2A1.2,1.2,0,1,0,4.4,3.2,1.2,1.2,0,0,0,3.194,2Z" transform="translate(0 0)" fill="#131313"/>
</svg>
