<svg xmlns="http://www.w3.org/2000/svg" width="125.386" height="101.839" viewBox="0 0 125.386 101.839">
  <path id="twitter" d="M112.5,73.462c.08,1.114.08,2.228.08,3.342,0,33.972-25.857,73.116-73.116,73.116A72.62,72.62,0,0,1,0,138.383a53.164,53.164,0,0,0,6.206.318,51.465,51.465,0,0,0,31.9-10.979A25.743,25.743,0,0,1,14.082,109.9a32.409,32.409,0,0,0,4.853.4,27.179,27.179,0,0,0,6.763-.875A25.7,25.7,0,0,1,5.092,84.2v-.318a25.881,25.881,0,0,0,11.616,3.262,25.736,25.736,0,0,1-7.956-34.37A73.045,73.045,0,0,0,61.738,79.667,29.01,29.01,0,0,1,61.1,73.78,25.722,25.722,0,0,1,105.576,56.2a50.594,50.594,0,0,0,16.31-6.206,25.629,25.629,0,0,1-11.3,14.162,51.517,51.517,0,0,0,14.8-3.978A55.24,55.24,0,0,1,112.5,73.462Z" transform="translate(0 -48.081)"/>
</svg>
