<svg xmlns="http://www.w3.org/2000/svg" width="163.864" height="115.223" viewBox="0 0 163.864 115.223">
  <path id="youtube" d="M175.375,82.028a20.59,20.59,0,0,0-14.487-14.581C148.108,64,96.866,64,96.866,64s-51.242,0-64.021,3.446A20.59,20.59,0,0,0,18.357,82.028c-3.424,12.862-3.424,39.7-3.424,39.7s0,26.836,3.424,39.7a20.283,20.283,0,0,0,14.487,14.349c12.779,3.446,64.021,3.446,64.021,3.446s51.242,0,64.021-3.446a20.283,20.283,0,0,0,14.487-14.349c3.424-12.862,3.424-39.7,3.424-39.7s0-26.836-3.424-39.7ZM80.107,146.09V97.361l42.828,24.365Z" transform="translate(-14.933 -64)"/>
</svg>
